<svg xmlns="http://www.w3.org/2000/svg" xmlns:xlink="http://www.w3.org/1999/xlink" contentStyleType="text/css" data-diagram-type="SEQUENCE" height="1135px" preserveAspectRatio="none" style="width:1047px;height:1135px;background:#FFFFFF;" version="1.1" viewBox="0 0 1047 1135" width="1047px" zoomAndPan="magnify">
  <rect width="100%" height="100%" fill="#ffffff"/><title>XA rollback on timeout</title><defs/><g><text fill="#000000" font-family="sans-serif" font-size="14" font-weight="bold" lengthAdjust="spacing" textLength="160.8454" x="439.4202" y="29.9659">XA rollback on timeout</text><rect fill="none" height="236.336" style="stroke:#000000;stroke-width:1.5;" width="785.9855" x="244.7002" y="204.5479"/><rect fill="none" height="170.924" style="stroke:#000000;stroke-width:1.5;" width="765.9855" x="254.7002" y="262.9599"/><rect fill="none" height="132.5301" style="stroke:#000000;stroke-width:1.5;" width="765.9855" x="254.7002" y="564.002"/><rect fill="none" height="249.3541" style="stroke:#000000;stroke-width:1.5;" width="621.3" x="409.3857" y="787.9441"/><rect fill="none" height="69.118" style="stroke:#000000;stroke-width:1.5;" width="601.3" x="419.3857" y="814.6501"/><rect fill="none" height="132.5301" style="stroke:#000000;stroke-width:1.5;" width="601.3" x="419.3857" y="897.7681"/><g><title>client SDK operation</title><rect fill="#000000" fill-opacity="0.00000" height="944.1624" width="8" x="74.8987" y="110.1358"/><line style="stroke:#181818;stroke-width:0.5;stroke-dasharray:5,5;" x1="78" x2="78" y1="110.1358" y2="1054.2982"/></g><g><title>lockd RM .implicit XA.</title><rect fill="#000000" fill-opacity="0.00000" height="944.1624" width="8" x="338.043" y="110.1358"/><line style="stroke:#181818;stroke-width:0.5;stroke-dasharray:5,5;" x1="341.7002" x2="341.7002" y1="110.1358" y2="1054.2982"/></g><g><title>lockd txn sweeper</title><rect fill="#000000" fill-opacity="0.00000" height="944.1624" width="8" x="491.9205" y="110.1358"/><line style="stroke:#181818;stroke-width:0.5;stroke-dasharray:5,5;" x1="495.3857" x2="495.3857" y1="110.1358" y2="1054.2982"/></g><g><title>Backend</title><rect fill="#000000" fill-opacity="0.00000" height="944.1624" width="8" x="975.5318" y="110.1358"/><line style="stroke:#181818;stroke-width:0.5;stroke-dasharray:5,5;" x1="979.378" x2="979.378" y1="110.1358" y2="1054.2982"/></g><g class="participant participant-head" data-participant="SDK"><rect fill="#E2E2F0" height="33.0679" rx="2.5" ry="2.5" style="stroke:#181818;stroke-width:0.5;" width="147.7975" x="5" y="76.0679"/><text fill="#000000" font-family="sans-serif" font-size="14" lengthAdjust="spacing" textLength="133.7975" x="12" y="98.0339">client SDK operation</text></g><g class="participant participant-tail" data-participant="SDK"><rect fill="#E2E2F0" height="33.0679" rx="2.5" ry="2.5" style="stroke:#181818;stroke-width:0.5;" width="147.7975" x="5" y="1053.2982"/><text fill="#000000" font-family="sans-serif" font-size="14" lengthAdjust="spacing" textLength="133.7975" x="12" y="1075.2642">client SDK operation</text></g><g class="participant participant-head" data-participant="RM"><rect fill="#E2E2F0" height="33.0679" rx="2.5" ry="2.5" style="stroke:#181818;stroke-width:0.5;" width="154.6854" x="264.7002" y="76.0679"/><text fill="#000000" font-family="sans-serif" font-size="14" lengthAdjust="spacing" textLength="140.6854" x="271.7002" y="98.0339">lockd RM (implicit XA)</text></g><g class="participant participant-tail" data-participant="RM"><rect fill="#E2E2F0" height="33.0679" rx="2.5" ry="2.5" style="stroke:#181818;stroke-width:0.5;" width="154.6854" x="264.7002" y="1053.2982"/><text fill="#000000" font-family="sans-serif" font-size="14" lengthAdjust="spacing" textLength="140.6854" x="271.7002" y="1075.2642">lockd RM (implicit XA)</text></g><g class="participant participant-head" data-participant="Sweeper"><rect fill="#E2E2F0" height="33.0679" rx="2.5" ry="2.5" style="stroke:#181818;stroke-width:0.5;" width="133.0695" x="429.3857" y="76.0679"/><text fill="#000000" font-family="sans-serif" font-size="14" lengthAdjust="spacing" textLength="119.0695" x="436.3857" y="98.0339">lockd txn sweeper</text></g><g class="participant participant-tail" data-participant="Sweeper"><rect fill="#E2E2F0" height="33.0679" rx="2.5" ry="2.5" style="stroke:#181818;stroke-width:0.5;" width="133.0695" x="429.3857" y="1053.2982"/><text fill="#000000" font-family="sans-serif" font-size="14" lengthAdjust="spacing" textLength="119.0695" x="436.3857" y="1075.2642">lockd txn sweeper</text></g><g class="participant participant-head" data-participant="Store"><text fill="#000000" font-family="sans-serif" font-size="14" lengthAdjust="spacing" textLength="56.3078" x="948.378" y="106.0339">Backend</text><path d="M961.5318,55.0679 C961.5318,45.0679 979.5318,45.0679 979.5318,45.0679 C979.5318,45.0679 997.5318,45.0679 997.5318,55.0679 L997.5318,81.0679 C997.5318,91.0679 979.5318,91.0679 979.5318,91.0679 C979.5318,91.0679 961.5318,91.0679 961.5318,81.0679 L961.5318,55.0679" fill="#E2E2F0" style="stroke:#181818;stroke-width:0.5;"/><path d="M961.5318,55.0679 C961.5318,65.0679 979.5318,65.0679 979.5318,65.0679 C979.5318,65.0679 997.5318,65.0679 997.5318,55.0679" fill="none" style="stroke:#181818;stroke-width:0.5;"/></g><g class="participant participant-tail" data-participant="Store"><text fill="#000000" font-family="sans-serif" font-size="14" lengthAdjust="spacing" textLength="56.3078" x="948.378" y="1068.2642">Backend</text><path d="M961.5318,1082.3661 C961.5318,1072.3661 979.5318,1072.3661 979.5318,1072.3661 C979.5318,1072.3661 997.5318,1072.3661 997.5318,1082.3661 L997.5318,1108.3661 C997.5318,1118.3661 979.5318,1118.3661 979.5318,1118.3661 C979.5318,1118.3661 961.5318,1118.3661 961.5318,1108.3661 L961.5318,1082.3661" fill="#E2E2F0" style="stroke:#181818;stroke-width:0.5;"/><path d="M961.5318,1082.3661 C961.5318,1092.3661 979.5318,1092.3661 979.5318,1092.3661 C979.5318,1092.3661 997.5318,1092.3661 997.5318,1082.3661" fill="none" style="stroke:#181818;stroke-width:0.5;"/></g><rect fill="#EEEEEE" height="3" style="stroke:#EEEEEE;stroke-width:1;" width="1040.6857" x="0" y="141.9888"/><line style="stroke:#000000;stroke-width:1;" x1="0" x2="1040.6857" y1="141.9888" y2="141.9888"/><line style="stroke:#000000;stroke-width:1;" x1="0" x2="1040.6857" y1="144.9888" y2="144.9888"/><rect fill="#EEEEEE" height="25.706" style="stroke:#000000;stroke-width:2;" width="67.352" x="486.6668" y="130.1358"/><text fill="#000000" font-family="sans-serif" font-size="13" font-weight="bold" lengthAdjust="spacing" textLength="49.972" x="492.6668" y="148.0328">Acquire</text><g class="message" data-participant-1="SDK" data-participant-2="RM"><polygon fill="#181818" points="330.043,185.5479,340.043,189.5479,330.043,193.5479,334.043,189.5479" style="stroke:#181818;stroke-width:1;"/><line style="stroke:#181818;stroke-width:1;" x1="78.8987" x2="336.043" y1="189.5479" y2="189.5479"/><text fill="#000000" font-family="sans-serif" font-size="13" font-weight="bold" lengthAdjust="spacing" textLength="7.436" x="85.8987" y="183.7389">1</text><text fill="#000000" font-family="sans-serif" font-size="13" lengthAdjust="spacing" textLength="227.7082" x="97.3347" y="183.7389">POST /v1/acquire (key, txn_id minted)</text></g><path d="M244.7002,204.5479 L317.9883,204.5479 L317.9883,214.2539 L307.9883,224.2539 L244.7002,224.2539 L244.7002,204.5479" fill="#EEEEEE" style="stroke:#000000;stroke-width:1.5;"/><rect fill="none" height="236.336" style="stroke:#000000;stroke-width:1.5;" width="785.9855" x="244.7002" y="204.5479"/><text fill="#000000" font-family="sans-serif" font-size="13" font-weight="bold" lengthAdjust="spacing" textLength="28.288" x="259.7002" y="219.4449">loop</text><text fill="#000000" font-family="sans-serif" font-size="11" font-weight="bold" lengthAdjust="spacing" textLength="128.6881" x="332.9883" y="218.3068">[CAS retry (lease meta)]</text><g class="message" data-participant-1="RM" data-participant-2="Store"><polygon fill="#181818" points="967.5318,243.9599,977.5318,247.9599,967.5318,251.9599,971.5318,247.9599" style="stroke:#181818;stroke-width:1;"/><line style="stroke:#181818;stroke-width:1;" x1="342.043" x2="973.5318" y1="247.9599" y2="247.9599"/><text fill="#000000" font-family="sans-serif" font-size="13" font-weight="bold" lengthAdjust="spacing" textLength="7.436" x="349.043" y="242.1509">2</text><text fill="#000000" font-family="sans-serif" font-size="13" lengthAdjust="spacing" textLength="92.4561" x="360.479" y="242.1509">load_meta(key)</text></g><path d="M254.7002,262.9599 L317.1592,262.9599 L317.1592,272.6659 L307.1592,282.6659 L254.7002,282.6659 L254.7002,262.9599" fill="#EEEEEE" style="stroke:#000000;stroke-width:1.5;"/><rect fill="none" height="170.924" style="stroke:#000000;stroke-width:1.5;" width="765.9855" x="254.7002" y="262.9599"/><text fill="#000000" font-family="sans-serif" font-size="13" font-weight="bold" lengthAdjust="spacing" textLength="17.459" x="269.7002" y="277.8569">alt</text><text fill="#000000" font-family="sans-serif" font-size="11" font-weight="bold" lengthAdjust="spacing" textLength="81.4984" x="332.1592" y="276.7188">[meta missing]</text><g class="message" data-participant-1="RM" data-participant-2="Store"><polygon fill="#181818" points="967.5318,337.784,977.5318,341.784,967.5318,345.784,971.5318,341.784" style="stroke:#181818;stroke-width:1;"/><line style="stroke:#181818;stroke-width:1;" x1="342.043" x2="973.5318" y1="341.784" y2="341.784"/><text fill="#000000" font-family="sans-serif" font-size="13" font-weight="bold" lengthAdjust="spacing" textLength="7.436" x="349.043" y="318.2689">3</text><text fill="#000000" font-family="sans-serif" font-size="13" lengthAdjust="spacing" textLength="183.0401" x="360.479" y="300.5629">store_meta(expected_etag="",</text><text fill="#000000" font-family="sans-serif" font-size="13" lengthAdjust="spacing" textLength="241.5531" x="360.479" y="318.2689">lease_id, lease_owner, lease_expires_at,</text><text fill="#000000" font-family="sans-serif" font-size="13" lengthAdjust="spacing" textLength="185.7702" x="360.479" y="335.975">lease_txn_id, fencing_token++)</text></g><line style="stroke:#000000;stroke-width:1;stroke-dasharray:2,2;" x1="254.7002" x2="1020.6857" y1="350.784" y2="350.784"/><text fill="#000000" font-family="sans-serif" font-size="11" font-weight="bold" lengthAdjust="spacing" textLength="81.2894" x="259.7002" y="362.5429">[meta present]</text><g class="message" data-participant-1="RM" data-participant-2="Store"><polygon fill="#181818" points="967.5318,421.8839,977.5318,425.8839,967.5318,429.8839,971.5318,425.8839" style="stroke:#181818;stroke-width:1;"/><line style="stroke:#181818;stroke-width:1;" x1="342.043" x2="973.5318" y1="425.8839" y2="425.8839"/><text fill="#000000" font-family="sans-serif" font-size="13" font-weight="bold" lengthAdjust="spacing" textLength="7.436" x="349.043" y="402.3689">4</text><text fill="#000000" font-family="sans-serif" font-size="13" lengthAdjust="spacing" textLength="236.9902" x="360.479" y="384.6629">store_meta(expected_etag=meta_etag,</text><text fill="#000000" font-family="sans-serif" font-size="13" lengthAdjust="spacing" textLength="241.5531" x="360.479" y="402.3689">lease_id, lease_owner, lease_expires_at,</text><text fill="#000000" font-family="sans-serif" font-size="13" lengthAdjust="spacing" textLength="185.7702" x="360.479" y="420.0749">lease_txn_id, fencing_token++)</text></g><g class="message" data-participant-1="RM" data-participant-2="SDK"><polygon fill="#181818" points="89.8987,467.5899,79.8987,471.5899,89.8987,475.5899,85.8987,471.5899" style="stroke:#181818;stroke-width:1;"/><line style="stroke:#181818;stroke-width:1;stroke-dasharray:2,2;" x1="83.8987" x2="341.043" y1="471.5899" y2="471.5899"/><text fill="#000000" font-family="sans-serif" font-size="13" font-weight="bold" lengthAdjust="spacing" textLength="7.436" x="95.8987" y="465.7809">5</text><text fill="#000000" font-family="sans-serif" font-size="13" lengthAdjust="spacing" textLength="185.2112" x="107.3347" y="465.7809">lease_id, txn_id, fencing_token</text></g><rect fill="#EEEEEE" height="3" style="stroke:#EEEEEE;stroke-width:1;" width="1040.6857" x="0" y="501.4429"/><line style="stroke:#000000;stroke-width:1;" x1="0" x2="1040.6857" y1="501.4429" y2="501.4429"/><line style="stroke:#000000;stroke-width:1;" x1="0" x2="1040.6857" y1="504.4429" y2="504.4429"/><rect fill="#EEEEEE" height="25.706" style="stroke:#000000;stroke-width:2;" width="53.949" x="493.3683" y="489.5899"/><text fill="#000000" font-family="sans-serif" font-size="13" font-weight="bold" lengthAdjust="spacing" textLength="36.569" x="499.3683" y="507.4869">Stage</text><g class="message" data-participant-1="SDK" data-participant-2="RM"><polygon fill="#181818" points="330.043,545.002,340.043,549.002,330.043,553.002,334.043,549.002" style="stroke:#181818;stroke-width:1;"/><line style="stroke:#181818;stroke-width:1;" x1="78.8987" x2="336.043" y1="549.002" y2="549.002"/><text fill="#000000" font-family="sans-serif" font-size="13" font-weight="bold" lengthAdjust="spacing" textLength="7.436" x="85.8987" y="543.1929">6</text><text fill="#000000" font-family="sans-serif" font-size="13" lengthAdjust="spacing" textLength="178.4902" x="97.3347" y="543.1929">POST /v1/update (key, txn_id)</text></g><path d="M254.7002,564.002 L327.9883,564.002 L327.9883,573.708 L317.9883,583.708 L254.7002,583.708 L254.7002,564.002" fill="#EEEEEE" style="stroke:#000000;stroke-width:1.5;"/><rect fill="none" height="132.5301" style="stroke:#000000;stroke-width:1.5;" width="765.9855" x="254.7002" y="564.002"/><text fill="#000000" font-family="sans-serif" font-size="13" font-weight="bold" lengthAdjust="spacing" textLength="28.288" x="269.7002" y="578.899">loop</text><text fill="#000000" font-family="sans-serif" font-size="11" font-weight="bold" lengthAdjust="spacing" textLength="150.7649" x="342.9883" y="577.7609">[CAS retry (meta + staging)]</text><g class="message" data-participant-1="RM" data-participant-2="Store"><polygon fill="#181818" points="967.5318,603.414,977.5318,607.414,967.5318,611.414,971.5318,607.414" style="stroke:#181818;stroke-width:1;"/><line style="stroke:#181818;stroke-width:1;" x1="342.043" x2="973.5318" y1="607.414" y2="607.414"/><text fill="#000000" font-family="sans-serif" font-size="13" font-weight="bold" lengthAdjust="spacing" textLength="7.436" x="349.043" y="601.605">7</text><text fill="#000000" font-family="sans-serif" font-size="13" lengthAdjust="spacing" textLength="92.4561" x="360.479" y="601.605">load_meta(key)</text></g><g class="message" data-participant-1="RM" data-participant-2="Store"><polygon fill="#181818" points="967.5318,635.12,977.5318,639.12,967.5318,643.12,971.5318,639.12" style="stroke:#181818;stroke-width:1;"/><line style="stroke:#181818;stroke-width:1;" x1="342.043" x2="973.5318" y1="639.12" y2="639.12"/><text fill="#000000" font-family="sans-serif" font-size="13" font-weight="bold" lengthAdjust="spacing" textLength="7.436" x="349.043" y="633.311">8</text><text fill="#000000" font-family="sans-serif" font-size="13" lengthAdjust="spacing" textLength="433.6674" x="360.479" y="633.311">write_state state/&lt;key&gt;/.staging/&lt;txn_id&gt; (expected_etag=staged_etag)</text></g><g class="message" data-participant-1="RM" data-participant-2="Store"><polygon fill="#181818" points="967.5318,684.532,977.5318,688.532,967.5318,692.532,971.5318,688.532" style="stroke:#181818;stroke-width:1;"/><line style="stroke:#181818;stroke-width:1;" x1="342.043" x2="973.5318" y1="688.532" y2="688.532"/><text fill="#000000" font-family="sans-serif" font-size="13" font-weight="bold" lengthAdjust="spacing" textLength="7.436" x="349.043" y="673.87">9</text><text fill="#000000" font-family="sans-serif" font-size="13" lengthAdjust="spacing" textLength="236.9902" x="360.479" y="665.017">store_meta(expected_etag=meta_etag,</text><text fill="#000000" font-family="sans-serif" font-size="13" lengthAdjust="spacing" textLength="205.4262" x="360.479" y="682.723">staged_txn_id, staged_state_etag)</text></g><rect fill="#EEEEEE" height="3" style="stroke:#EEEEEE;stroke-width:1;" width="1040.6857" x="0" y="725.385"/><line style="stroke:#000000;stroke-width:1;" x1="0" x2="1040.6857" y1="725.385" y2="725.385"/><line style="stroke:#000000;stroke-width:1;" x1="0" x2="1040.6857" y1="728.385" y2="728.385"/><rect fill="#EEEEEE" height="25.706" style="stroke:#000000;stroke-width:2;" width="126.9311" x="456.8773" y="713.532"/><text fill="#000000" font-family="sans-serif" font-size="13" font-weight="bold" lengthAdjust="spacing" textLength="109.5511" x="462.8773" y="731.429">Timeout + sweep</text><g class="message" data-participant-1="Sweeper" data-participant-2="Store"><polygon fill="#181818" points="967.5318,768.9441,977.5318,772.9441,967.5318,776.9441,971.5318,772.9441" style="stroke:#181818;stroke-width:1;"/><line style="stroke:#181818;stroke-width:1;" x1="495.9205" x2="973.5318" y1="772.9441" y2="772.9441"/><text fill="#000000" font-family="sans-serif" font-size="13" font-weight="bold" lengthAdjust="spacing" textLength="14.872" x="502.9205" y="767.1351">10</text><text fill="#000000" font-family="sans-serif" font-size="13" lengthAdjust="spacing" textLength="184.8862" x="521.7925" y="767.1351">get_txn_record(.txns/&lt;txn_id&gt;)</text></g><path d="M409.3857,787.9441 L471.8447,787.9441 L471.8447,797.6501 L461.8447,807.6501 L409.3857,807.6501 L409.3857,787.9441" fill="#EEEEEE" style="stroke:#000000;stroke-width:1.5;"/><rect fill="none" height="249.3541" style="stroke:#000000;stroke-width:1.5;" width="621.3" x="409.3857" y="787.9441"/><text fill="#000000" font-family="sans-serif" font-size="13" font-weight="bold" lengthAdjust="spacing" textLength="17.459" x="424.3857" y="802.8411">alt</text><text fill="#000000" font-family="sans-serif" font-size="11" font-weight="bold" lengthAdjust="spacing" textLength="154.3179" x="486.8447" y="801.703">[decision pending + expired]</text><path d="M419.3857,814.6501 L492.6737,814.6501 L492.6737,824.3561 L482.6737,834.3561 L419.3857,834.3561 L419.3857,814.6501" fill="#EEEEEE" style="stroke:#000000;stroke-width:1.5;"/><rect fill="none" height="69.118" style="stroke:#000000;stroke-width:1.5;" width="601.3" x="419.3857" y="814.6501"/><text fill="#000000" font-family="sans-serif" font-size="13" font-weight="bold" lengthAdjust="spacing" textLength="28.288" x="434.3857" y="829.5471">loop</text><text fill="#000000" font-family="sans-serif" font-size="11" font-weight="bold" lengthAdjust="spacing" textLength="113.9702" x="507.6737" y="828.409">[CAS retry (decision)]</text><g class="message" data-participant-1="Sweeper" data-participant-2="Store"><polygon fill="#181818" points="967.5318,871.7681,977.5318,875.7681,967.5318,879.7681,971.5318,875.7681" style="stroke:#181818;stroke-width:1;"/><line style="stroke:#181818;stroke-width:1;" x1="495.9205" x2="973.5318" y1="875.7681" y2="875.7681"/><text fill="#000000" font-family="sans-serif" font-size="13" font-weight="bold" lengthAdjust="spacing" textLength="14.872" x="502.9205" y="861.1061">11</text><text fill="#000000" font-family="sans-serif" font-size="13" lengthAdjust="spacing" textLength="185.5102" x="521.7925" y="852.2531">put_txn_record(state=rollback,</text><text fill="#000000" font-family="sans-serif" font-size="13" lengthAdjust="spacing" textLength="341.3024" x="521.7925" y="869.9591">tc_term, participants merged) (expected_etag=txn_etag)</text></g><path d="M419.3857,897.7681 L492.6737,897.7681 L492.6737,907.4742 L482.6737,917.4742 L419.3857,917.4742 L419.3857,897.7681" fill="#EEEEEE" style="stroke:#000000;stroke-width:1.5;"/><rect fill="none" height="132.5301" style="stroke:#000000;stroke-width:1.5;" width="601.3" x="419.3857" y="897.7681"/><text fill="#000000" font-family="sans-serif" font-size="13" font-weight="bold" lengthAdjust="spacing" textLength="28.288" x="434.3857" y="912.6651">loop</text><text fill="#000000" font-family="sans-serif" font-size="11" font-weight="bold" lengthAdjust="spacing" textLength="107.1393" x="507.6737" y="911.527">[apply participants]</text><g class="message" data-participant-1="Sweeper" data-participant-2="Store"><polygon fill="#181818" points="967.5318,937.1802,977.5318,941.1802,967.5318,945.1802,971.5318,941.1802" style="stroke:#181818;stroke-width:1;"/><line style="stroke:#181818;stroke-width:1;" x1="495.9205" x2="973.5318" y1="941.1802" y2="941.1802"/><text fill="#000000" font-family="sans-serif" font-size="13" font-weight="bold" lengthAdjust="spacing" textLength="14.872" x="502.9205" y="935.3712">12</text><text fill="#000000" font-family="sans-serif" font-size="13" lengthAdjust="spacing" textLength="137.8651" x="521.7925" y="935.3712">load_meta(participant)</text></g><g class="message" data-participant-1="Sweeper" data-participant-2="Store"><polygon fill="#181818" points="967.5318,968.8862,977.5318,972.8862,967.5318,976.8862,971.5318,972.8862" style="stroke:#181818;stroke-width:1;"/><line style="stroke:#181818;stroke-width:1;" x1="495.9205" x2="973.5318" y1="972.8862" y2="972.8862"/><text fill="#000000" font-family="sans-serif" font-size="13" font-weight="bold" lengthAdjust="spacing" textLength="14.872" x="502.9205" y="967.0772">13</text><text fill="#000000" font-family="sans-serif" font-size="13" lengthAdjust="spacing" textLength="440.7394" x="521.7925" y="967.0772">delete_state state/&lt;key&gt;/.staging/&lt;txn_id&gt; (expected_etag=staged_etag)</text></g><g class="message" data-participant-1="Sweeper" data-participant-2="Store"><polygon fill="#181818" points="967.5318,1018.2982,977.5318,1022.2982,967.5318,1026.2982,971.5318,1022.2982" style="stroke:#181818;stroke-width:1;"/><line style="stroke:#181818;stroke-width:1;" x1="495.9205" x2="973.5318" y1="1022.2982" y2="1022.2982"/><text fill="#000000" font-family="sans-serif" font-size="13" font-weight="bold" lengthAdjust="spacing" textLength="14.872" x="502.9205" y="1007.6362">14</text><text fill="#000000" font-family="sans-serif" font-size="13" lengthAdjust="spacing" textLength="236.9902" x="521.7925" y="998.7832">store_meta(expected_etag=meta_etag,</text><text fill="#000000" font-family="sans-serif" font-size="13" lengthAdjust="spacing" textLength="128.1931" x="521.7925" y="1016.4892">clear lease + staging)</text></g><!--SRC=[hLHDRzim3BtxLn0vnKZMODUW3f2jjwBOqFImmm13bRX0Y2nfihmq_twaPBTnFh0Ew26nB5BlFJwAZZeQX1zh2CwOPo5tu2n4tQ3hOY6ww6pNF6Ce2Yz2r59xOIDCfD58pytTFJYFGKJjx0H4oplZJEFaJi7Z0qnrumrjHo8hK-xZmwNK-6AXtICIR4RCwqA9A9v5Yp3vGYhHgXoDBc1HL1MivUzE1uIgAbZMfnNXB-7xjyqJBFvyNeW-FDtXOSuajLRGQ1jHbOLnpiFNzGO2nd20gK4cQZ2AiW0MJsY9QGd62LLpX84uAanCcGJMjjfkQUlaICkFV0PVF4gYhEbbMqqcyvysSP6OEUILsriCmmlba-Ys5l4rCqkVmo-qakZgwCYCsOobeEbLWwT3rA3_qC9RQVN1agmg-CSYMCNT_HBUu2yUJDtSa9AhlUmyNOPnAyzxc7oOKS5YIz3_xkCekWywOardYIRzBsufRRMuwU4Mjvbs1ISsShnVdu6-o_iUO72cVqqQUbIsaorwoaFADVA89BFoh1nnRZ4ch83I1JMzeNNxAhui-F8gbBgb-GLFo5GR0UOUAohWrDKXkKnNwvpFToE-fBiQFYrKNfHrnD3CuMZoMxgpWQeiJyraeC59hhgN8xmtXn705J5lFJvAlgPSeS4FwVaby7UrNj9WX3mTuuix3D5V]--></g></svg>